<svg width="64" height="64" xmlns="http://www.w3.org/2000/svg" class="frm-status-submitted" xml:space="preserve" version="1.1">

 <g>
  <title>Layer 1</title>
  <g id="svg_1">
   <path id="svg_2" d="m59.38072,7.19036c-5.2,-5.2 -13.7,-5.2 -19,0c-5.2,5.2 -5.2,13.7 0,19c5.2,5.2 13.7,5.2 19,0c5.2,-5.3 5.2,-13.7 0,-19z" fill="#FF9933"/>
   <path id="svg_3" d="m49.10972,18.55436c-0.771,0 -1.396,-0.896 -1.396,-2l0,0c0,-1.104 0.625,-2 1.396,-2l8.375,0c0.771,0 1.396,0.896 1.396,2l0,0c0,1.104 -0.625,2 -1.396,2l-8.375,0z" fill="#FFFFFF"/>
   <path id="svg_4" d="m51.71372,17.19636c0,0.75 -0.896,1.358 -2,1.358l0,0c-1.104,0 -2,-0.608 -2,-1.358l0,-8.148c0,-0.75 0.896,-1.358 2,-1.358l0,0c1.104,0 2,0.608 2,1.358l0,8.148z" fill="#FFFFFF"/>
  </g>
  <g>
   <rect height="6.4" width="6.6" fill="#BDC3C7" y="13.37653" x="17.62153"/>
   <rect height="6.4" width="6.6" fill="#BDC3C7" y="24.97653" x="17.62153"/>
   <rect height="6.4" width="6.6" fill="#BDC3C7" y="36.67653" x="17.62153"/>
   <rect height="3.8" width="3.9" fill="#BDC3C7" y="39.57653" x="44.72153"/>
   <rect height="3.8" width="3.9" fill="#BDC3C7" y="46.47653" x="44.72153"/>
   <path d="m54.43117,33.17653l0,26.7l-5.5,0l0,-5.4l-3.9,0l0,5.4l-5.5,0l0,-28.8c-1.7,-1.1 -3.1,-2.6 -4.3,-4.2l0,33l-10.7,0l0,-10.7l-6.6,0l0,10.6l-10.7,0l0,-48.2l28.1,-4.4l0,0c1.4,-2 3.2,-3.6 5.3,-4.9c-0.5,-1.6 -2.1,-2.6 -3.7,-2.3l-32.3,5c-1.9,0.5 -3.2,2.2 -2.9,4.1c0.1,0.9 0.6,1.6 1.2,2.1l0,50.8c0.1,1.1 1,2.1 2.2,2.1l32.3,0l19.1,0c1.2,0 2.1,-1 2.1,-2.1l0,-31c-1.2,0.9 -2.7,1.6 -4.2,2.2z" fill="#BDC3C7"/>
   <path d="m44.72153,33.47653l0,3l3.9,0l0,-2.5c-1.3,0 -2.6,-0.2 -3.9,-0.5z" fill="#BDC3C7"/>
  </g>
 </g>
</svg>