<svg width="64" height="64" xmlns="http://www.w3.org/2000/svg" class="frm-status-submitted" xml:space="preserve" version="1.1">

 <g>
  <title>Layer 1</title>
  <g id="svg_1">
   <path id="svg_2" d="m59.38072,7.19036c-5.2,-5.2 -13.7,-5.2 -19,0c-5.2,5.2 -5.2,13.7 0,19c5.2,5.2 13.7,5.2 19,0c5.2,-5.3 5.2,-13.7 0,-19z" fill="#FF9933"/>
   <path id="svg_3" d="m49.10972,18.55436c-0.771,0 -1.396,-0.896 -1.396,-2l0,0c0,-1.104 0.625,-2 1.396,-2l8.375,0c0.771,0 1.396,0.896 1.396,2l0,0c0,1.104 -0.625,2 -1.396,2l-8.375,0z" fill="#FFFFFF"/>
   <path id="svg_4" d="m51.71372,17.19636c0,0.75 -0.896,1.358 -2,1.358l0,0c-1.104,0 -2,-0.608 -2,-1.358l0,-8.148c0,-0.75 0.896,-1.358 2,-1.358l0,0c1.104,0 2,0.608 2,1.358l0,8.148z" fill="#FFFFFF"/>
  </g>
  <g>
   <g>
    <title>Layer 1</title>
    <g/>
    <g>
     <path fill="#BDC3C7" d="m42.64755,37.65c0.7,0 1.3,0.1 1.9,0.3c0.5,0.2 0.8,0.8 0.8,1.6c0,0.5 0.1,1 0.3,1.5c0.2,0.5 0.8,0.7 1.6,0.7c0.5,0 0.9,-0.1 1.2,-0.3c0.3,-0.2 0.5,-0.5 0.7,-0.9c0.2,-0.3 0.3,-0.7 0.3,-1.1c0.1,-0.4 0.1,-0.8 0.1,-1.1c0,-1.3 -0.3,-2.3 -0.9,-3.1c-0.6,-0.8 -1.4,-1.5 -2.4,-1.9c-1,-0.4 -2.1,-0.7 -3.3,-0.8c-1.2,-0.1 -2.4,0 -3.6,0.3c-2.4,0.5 -4.4,0.5 -5.9,0c-1.5,-0.5 -2.2,-1.5 -2.2,-2.9c0,-0.7 -0.2,-1.2 -0.6,-1.6c-0.4,-0.4 -0.9,-0.6 -1.5,-0.6c-0.6,0 -1.1,0.2 -1.5,0.6c-0.4,0.4 -0.6,0.9 -0.6,1.6c0,1.4 -0.7,2.4 -2.2,2.9c-1.5,0.5 -3.4,0.5 -5.9,0c-1.2,-0.3 -2.4,-0.3 -3.6,-0.3c-1.2,0.1 -2.3,0.3 -3.3,0.8c-1,0.4 -1.8,1.1 -2.4,1.9c-0.6,0.8 -0.9,1.9 -0.9,3.1c0,0.3 0,0.7 0.1,1.1c0.1,0.4 0.2,0.8 0.3,1.1c0.2,0.3 0.4,0.6 0.7,0.9c0.3,0.2 0.7,0.3 1.2,0.3c0.8,0 1.4,-0.2 1.6,-0.7c0.2,-0.5 0.3,-1 0.3,-1.5c0,-0.9 0.3,-1.4 1,-1.6c0.6,-0.2 1.4,-0.3 2.2,-0.3c1,0 2,0.1 2.9,0.4c0.9,0.3 1.9,0.4 3,0.4c2.3,0 4,-0.3 5.1,-1c1.1,-0.7 1.8,-1.4 2.1,-2.4l-0.2,0c0.3,0.9 1,1.7 2.1,2.4c1.1,0.7 2.8,1 5.1,1c1,0 2.1,-0.1 3.1,-0.4c1,-0.3 2.1,-0.4 3.3,-0.4z"/>
     <path fill="#BDC3C7" d="m23.34755,8.35c0,0.5 0.4,1 0.9,1c0,0 0,0 0,0c0.2,2.6 2.2,5.1 4.7,5.1c2.5,0 4.5,-2.6 4.7,-5.1c0,0 0,0 0,0c0.5,0 0.9,-0.4 0.9,-1c0,-0.4 -0.2,-0.7 -0.5,-0.9c0.2,-0.6 0.3,-1.2 0.3,-1.8c0,-3.1 -2.4,-5.7 -5.3,-5.7c-2.9,0 -5.3,2.5 -5.3,5.7c0,0.6 0.1,1.3 0.3,1.8c-0.5,0.1 -0.7,0.5 -0.7,0.9z"/>
     <path fill="#BDC3C7" d="m5.84755,52.75c0,0.4 0.3,0.7 0.7,0.7c0,0 0,0 0,0c0.1,2 1.7,3.9 3.6,3.9c1.9,0 3.4,-2 3.6,-3.9c0,0 0,0 0,0c0.4,0 0.7,-0.3 0.7,-0.7c0,-0.3 -0.2,-0.6 -0.4,-0.7c0.1,-0.4 0.2,-0.9 0.2,-1.4c0,-2.4 -1.8,-4.3 -4.1,-4.3c-2.3,0 -4.1,1.9 -4.1,4.3c0,0.5 0.1,1 0.2,1.4c-0.3,0.1 -0.4,0.4 -0.4,0.7z"/>
     <path fill="#BDC3C7" d="m13.14755,58.65c-0.1,0 -0.1,0 -0.2,0l-0.2,0c-0.1,0 -0.1,0 -0.2,0c-0.7,0.4 -1.6,0.6 -2.5,0.6c-0.9,0 -1.8,-0.2 -2.5,-0.6c-0.1,0 -0.1,0 -0.2,0l-0.1,0c0,0 -0.1,0 -0.1,0c-2.2,0.5 -4.3,1.7 -6,3.3c-0.1,0.1 -0.1,0.2 -0.1,0.3l0,1.4c0,0.1 0.2,0.3 0.4,0.3l17.3,0c0.2,0 0.4,-0.2 0.4,-0.4l0,-1.4c0,-0.1 0,-0.2 -0.1,-0.3c-1.7,-1.5 -3.7,-2.7 -5.9,-3.2z"/>
     <path fill="#BDC3C7" d="m43.64755,50.65c0,0.5 0.1,1 0.2,1.4c-0.2,0.1 -0.4,0.4 -0.4,0.7c0,0.4 0.3,0.7 0.7,0.7c0,0 0,0 0,0c0.1,2 1.7,3.9 3.6,3.9c1.9,0 3.4,-2 3.6,-3.9c0,0 0,0 0,0c0.4,0 0.7,-0.3 0.7,-0.7c0,-0.3 -0.2,-0.6 -0.4,-0.7c0.1,-0.4 0.2,-0.9 0.2,-1.4c0,-2.4 -1.8,-4.3 -4.1,-4.3c-2.2,0 -4.1,1.9 -4.1,4.3z"/>
     <path fill="#BDC3C7" d="m56.74755,61.95c-1.7,-1.6 -3.7,-2.8 -5.9,-3.3c-0.1,0 -0.1,0 -0.2,0l-0.2,0c-0.1,0 -0.1,0 -0.2,0c-0.7,0.4 -1.6,0.6 -2.5,0.6c-0.9,0 -1.8,-0.2 -2.5,-0.6c-0.1,0 -0.1,0 -0.2,0l-0.1,0c0,0 -0.1,0 -0.1,0c-2.2,0.5 -4.3,1.7 -6,3.3c-0.1,0.1 -0.1,0.2 -0.1,0.3l0,1.4c0,0.2 0.2,0.4 0.4,0.4l17.3,0c0.2,0 0.4,-0.2 0.4,-0.4l0,-1.4c0,-0.1 -0.1,-0.2 -0.1,-0.3z"/>
     <path fill="#BDC3C7" d="m34.54755,16.55c-0.5,-0.2 -1.1,-0.4 -1.6,-0.5c-0.1,0 -0.2,-0.1 -0.2,-0.1l-0.3,0c-0.1,0 -0.2,0 -0.2,0.1c-0.9,0.5 -2.1,0.7 -3.3,0.7c-1.2,0 -2.4,-0.3 -3.3,-0.7c-0.1,0 -0.2,-0.1 -0.2,-0.1l-0.2,0c0,0 -0.1,0 -0.1,0c-2.9,0.7 -5.7,2.2 -7.9,4.4c-0.1,0.1 -0.2,0.2 -0.2,0.4l0,1.8c0,0.3 0.2,0.5 0.5,0.5l18.1,0c-0.8,-2.2 -1.1,-4.4 -1.1,-6.5z"/>
    </g>
   </g>
  </g>
 </g>
</svg>